# xmcd
#
# Track frame offsets: 
#        150
#        11491
#        20911
#        32561
#        43787
#        55793
#        68158
#        78603
#        88563
#        101612
#        113085
#        124384
#        134352
#        145478
#        154922
#        165575
#        174474
#        187208
#        198606
#        208536
#        219440
#        229215
#        240825
#        250257
#        262395
#        273536
#        285275
#        295024
#
# Disc length: 4083 seconds
#
# Revision: 1
# Processed by: cddbd v1.5.2PL0 Copyright (c) Steve Scherf et al.
# Submitted via: ExactAudioCopy v1.0b3
#
DISCID=a50ff11c
DTITLE=George Jones - Ragged But Right CD2
DYEAR=2011
DGENRE=Country
TTITLE0=Jones George and Virginia Spurlock - Flame In My Heart
TTITLE1=Jones George and Virginia Spurlock - No No Never
TTITLE2=Jones George - Hearts In My Dreams
TTITLE3=Jones George - Tall Tall Trees
TTITLE4=Jones George - Cup Of Loneliness
TTITLE5=Jones George - Take The Devil Out Of Me
TTITLE6=Jones George - New Baby For Christmas
TTITLE7=Jones George - Maybe Next Christmas
TTITLE8=Jones George - Color Of The Blues
TTITLE9=Jones George - Eskimo Pie
TTITLE10=Jones George - Nothing Can Stop My Love
TTITLE11=Jones George and Jeanette Hicks - I'm With The Wrong One
TTITLE12=Jones George - Wandering Soul
TTITLE13=Jones George - Jesus Wants Me
TTITLE14=Jones George - Treasure Of Love
TTITLE15=Jones George - If I Don't Love You (Grits Ain't Groceries)
TTITLE16=Jones George - White Lightnin'
TTITLE17=Jones George - Long Time To Forget
TTITLE18=Jones George - Into My Arms Again
TTITLE19=Jones George - Who Shot Sam
TTITLE20=Jones George - If You Want To Wear A Crown
TTITLE21=Jones George - My Lord Has Called Me
TTITLE22=Jones George - Big Harlan Taylor
TTITLE23=Jones George - Money To Burn
TTITLE24=Jones George - Accidently On Purpose
TTITLE25=Jones George - Sparkling Brown Eyes
TTITLE26=Jones George - Have Mercy On Me
TTITLE27=Jones George - If You Believe
EXTD=
EXTT0=
EXTT1=
EXTT2=
EXTT3=
EXTT4=
EXTT5=
EXTT6=
EXTT7=
EXTT8=
EXTT9=
EXTT10=
EXTT11=
EXTT12=
EXTT13=
EXTT14=
EXTT15=
EXTT16=
EXTT17=
EXTT18=
EXTT19=
EXTT20=
EXTT21=
EXTT22=
EXTT23=
EXTT24=
EXTT25=
EXTT26=
EXTT27=
PLAYORDER=
